<svg width="64" height="64" viewBox="0 0 64 64" fill="none" xmlns="http://www.w3.org/2000/svg">
<circle cx="32" cy="32" r="31.5" fill="#E6FFE2" stroke="#72B667"/>
<path d="M36.0211 36.6576L36.9775 36.1986C39.6552 34.898 41.2619 31.8377 41.2619 29.2747V17.7221C41.2619 17.1483 40.7263 16.6892 40.1143 16.6892H24.8893C24.239 16.6892 23.7417 17.1483 23.7417 17.7221V29.2747C23.7417 31.8377 25.3866 34.898 28.0261 36.1986L28.9825 36.6576C29.7475 37.0402 30.2448 37.767 30.2448 38.5321V42.2427H28.2556C27.8731 42.2427 27.5671 42.5487 27.5671 42.9312V44.9969H25.5396C24.8893 44.9969 24.392 45.5325 24.392 46.1446V47.6364C24.392 47.8277 24.545 47.9425 24.698 47.9425H40.229C40.4203 47.9425 40.5351 47.7895 40.5351 47.6364V46.1446C40.5351 45.4942 39.9995 44.9969 39.3875 44.9969H37.36V42.9312C37.36 42.5487 37.054 42.2427 36.6714 42.2427H34.6823V38.5321C34.7588 37.767 35.2561 37.0402 36.0211 36.6576ZM34.6057 30.4605L32.5018 29.3512L30.3978 30.4605C30.2066 30.5753 29.9771 30.537 29.824 30.4223C29.6328 30.3075 29.5563 30.078 29.5945 29.8867L29.9771 27.5533L28.2939 25.9083C28.1409 25.7553 28.1026 25.5258 28.1409 25.3345C28.2174 25.1433 28.3704 24.9903 28.5999 24.952L30.9334 24.6077L31.9662 22.5038C32.0428 22.3125 32.234 22.1977 32.4635 22.1977C32.6931 22.1977 32.8843 22.3125 32.9608 22.5038L33.9937 24.6077L36.3272 24.952C36.5567 24.9903 36.7097 25.1433 36.7862 25.3345C36.8627 25.5258 36.7862 25.7553 36.6332 25.9083L34.95 27.5533L35.3326 29.8867C35.3708 30.1163 35.2943 30.3075 35.103 30.4223C34.9883 30.4988 34.8735 30.537 34.7588 30.537C34.7588 30.537 34.6823 30.4988 34.6057 30.4605Z" fill="#72B667"/>
<path d="M22.5176 19.4434H18.501C18.2332 19.4434 17.9654 19.6729 18.0037 19.9789C18.0802 21.8151 18.6922 27.8209 22.3646 30.4987C22.5176 30.6134 22.7471 30.4987 22.7471 30.3074V28.2035C22.7471 28.1269 22.7089 28.0887 22.6706 28.0504C21.9438 27.2854 21.3317 26.2525 20.8727 24.9136C20.5284 23.8808 20.2606 22.8479 20.1459 21.9681C20.1076 21.7768 20.2606 21.5856 20.4519 21.5856H22.5176C22.6324 21.5856 22.7471 21.4708 22.7471 21.356V19.7111C22.7471 19.5581 22.6324 19.4434 22.5176 19.4434Z" fill="#72B667"/>
<path d="M42.3329 28.0504C42.2946 28.0887 42.2563 28.1652 42.2563 28.2035V30.3074C42.2563 30.4987 42.4859 30.6134 42.6389 30.4987C46.3112 27.8209 46.9233 21.7768 46.9998 19.9789C46.9998 19.6729 46.7703 19.4434 46.5025 19.4434H42.4859C42.3711 19.4434 42.2563 19.5581 42.2563 19.6729V21.356C42.2563 21.4708 42.3711 21.5856 42.4859 21.5856H44.5516C44.7428 21.5856 44.8959 21.7768 44.8576 21.9681C44.7046 22.8479 44.4751 23.8808 44.1308 24.9136C43.6335 26.2525 43.0597 27.2854 42.3329 28.0504Z" fill="#72B667"/>
</svg>
